<svg width="680" height="451" viewBox="0 0 680 451" fill="none" xmlns="http://www.w3.org/2000/svg">
<g filter="url(#filter0_d_31_19)">
<path d="M205.955 0.636351H322.716V299.784C322.574 328.193 315.401 353.193 301.196 374.784C287.134 396.233 267.673 412.994 242.815 425.068C218.099 437 189.619 442.966 157.375 442.966C129.392 442.966 103.824 438.136 80.6705 428.477C57.517 418.676 39.0511 403.335 25.2727 382.455C11.4943 361.432 4.67614 334.159 4.81818 300.636H123.284C123.71 311.574 125.557 320.807 128.824 328.335C132.233 335.864 136.92 341.545 142.886 345.381C148.994 349.074 156.381 350.92 165.045 350.92C173.852 350.92 181.239 349.003 187.205 345.168C193.313 341.332 197.929 335.651 201.054 328.122C204.179 320.452 205.813 311.006 205.955 299.784V0.636351ZM558.689 0.636351H675.45V299.784C675.308 328.193 668.135 353.193 653.93 374.784C639.868 396.233 620.408 412.994 595.55 425.068C570.834 437 542.354 442.966 510.109 442.966C482.126 442.966 456.558 438.136 433.405 428.477C410.251 418.676 391.786 403.335 378.007 382.455C364.229 361.432 357.411 334.159 357.553 300.636H476.018C476.445 311.574 478.291 320.807 481.558 328.335C484.967 335.864 489.655 341.545 495.621 345.381C501.729 349.074 509.115 350.92 517.78 350.92C526.587 350.92 533.973 349.003 539.939 345.168C546.047 341.332 550.663 335.651 553.788 328.122C556.913 320.452 558.547 311.006 558.689 299.784V0.636351Z" fill="#FFEAAD"/>
</g>
<defs>
<filter id="filter0_d_31_19" x="0.605103" y="0.636353" width="678.845" height="450.329" filterUnits="userSpaceOnUse" color-interpolation-filters="sRGB">
<feFlood flood-opacity="0" result="BackgroundImageFix"/>
<feColorMatrix in="SourceAlpha" type="matrix" values="0 0 0 0 0 0 0 0 0 0 0 0 0 0 0 0 0 0 127 0" result="hardAlpha"/>
<feOffset dy="4"/>
<feGaussianBlur stdDeviation="2"/>
<feComposite in2="hardAlpha" operator="out"/>
<feColorMatrix type="matrix" values="0 0 0 0 0 0 0 0 0 0 0 0 0 0 0 0 0 0 0.25 0"/>
<feBlend mode="normal" in2="BackgroundImageFix" result="effect1_dropShadow_31_19"/>
<feBlend mode="normal" in="SourceGraphic" in2="effect1_dropShadow_31_19" result="shape"/>
</filter>
</defs>
</svg>
